<svg width="221" height="90" viewBox="0 0 221 90" fill="none" xmlns="http://www.w3.org/2000/svg">
<path fill-rule="evenodd" clip-rule="evenodd" d="M47.0507 73.6446H140.129C140.656 73.6446 141.169 73.5877 141.664 73.4798C142.158 73.5877 142.671 73.6446 143.198 73.6446H196.386C200.34 73.6446 203.545 70.439 203.545 66.4847C203.545 62.5304 200.34 59.3248 196.386 59.3248H190.249C186.294 59.3248 183.089 56.1192 183.089 52.1649C183.089 48.2106 186.294 45.005 190.249 45.005H209.682C213.637 45.005 216.842 41.7994 216.842 37.8451C216.842 33.8908 213.637 30.6852 209.682 30.6852H187.18C191.134 30.6852 194.34 27.4796 194.34 23.5253C194.34 19.571 191.134 16.3654 187.18 16.3654H121.718C125.672 16.3654 128.878 13.1598 128.878 9.20554C128.878 5.25125 125.672 2.04565 121.718 2.04565H63.4162C59.4619 2.04565 56.2563 5.25125 56.2563 9.20554C56.2563 13.1598 59.4619 16.3654 63.4162 16.3654H22.5025C18.5482 16.3654 15.3426 19.571 15.3426 23.5253C15.3426 27.4796 18.5482 30.6852 22.5025 30.6852H48.0735C52.0278 30.6852 55.2334 33.8908 55.2334 37.8451C55.2334 41.7994 52.0278 45.005 48.0735 45.005H7.15989C3.20559 45.005 0 48.2106 0 52.1649C0 56.1192 3.20559 59.3248 7.15989 59.3248H47.0507C43.0964 59.3248 39.8908 62.5304 39.8908 66.4847C39.8908 70.439 43.0964 73.6446 47.0507 73.6446ZM213.774 73.6446C217.728 73.6446 220.934 70.439 220.934 66.4847C220.934 62.5304 217.728 59.3248 213.774 59.3248C209.82 59.3248 206.614 62.5304 206.614 66.4847C206.614 70.439 209.82 73.6446 213.774 73.6446Z" fill="#F6F6F6"/>
<g clip-path="url(#clip0_1643_991)">
<path d="M73.4808 10.0955L85.0594 3.25269L82.983 18.2373L68.7246 20.5182L73.4808 10.0955Z" fill="#BEBEBF"/>
<path d="M73.7472 10.5353L85.3155 4.30615L83.2596 17.7974L69.083 19.8738L73.7472 10.5353Z" fill="#BEBEBF"/>
<path d="M72.9287 89.56C70.9341 89.56 69.0623 88.7826 67.6508 87.3609C66.2393 85.9494 65.4619 84.0673 65.4619 82.0626V19.0146C65.4619 18.8407 65.4926 18.6771 65.5642 18.5237C65.6256 18.3702 65.7176 18.227 65.8404 18.1043L83.5048 0.378451C83.6276 0.25571 83.7605 0.163655 83.9242 0.102284C84.0776 0.0409137 84.2413 0 84.4152 0H131.179C133.174 0 135.046 0.787588 136.457 2.19911C137.869 3.61063 138.646 5.49266 138.646 7.49743V15.5063C138.646 15.8438 138.513 16.1814 138.268 16.4166C138.022 16.6621 137.705 16.7951 137.368 16.7951C137.03 16.7951 136.703 16.6621 136.468 16.4166C136.232 16.1814 136.089 15.8438 136.089 15.5063V7.49743C136.089 6.17796 135.578 4.94032 134.647 4.01977C133.716 3.08898 132.489 2.57756 131.179 2.57756H84.9368L68.019 19.5465V82.0626C68.019 83.3616 68.5407 84.6299 69.4612 85.5402C70.392 86.471 71.6194 86.9824 72.9287 86.9824H131.159C132.468 86.9824 133.706 86.471 134.626 85.5402C135.557 84.6094 136.069 83.3718 136.069 82.0626V77.5518C136.069 77.2143 136.202 76.8768 136.447 76.6415C136.682 76.4063 137.01 76.2631 137.347 76.2631C137.685 76.2631 138.012 76.396 138.247 76.6415C138.483 76.8768 138.626 77.2143 138.626 77.5518V82.0626C138.626 84.0673 137.848 85.9494 136.437 87.3609C135.025 88.7724 133.154 89.56 131.159 89.56H72.9287Z" fill="#959595"/>
<path d="M161.486 74.7697C161.323 74.7697 161.159 74.7391 161.005 74.6777C160.852 74.6163 160.709 74.5243 160.586 74.4015L148.486 62.2604C148.24 62.0149 148.107 61.6978 148.107 61.3501C148.107 61.0023 148.24 60.6852 148.486 60.4397C148.721 60.2045 149.059 60.0613 149.386 60.0613C149.713 60.0613 150.051 60.1942 150.296 60.4397L162.397 72.5809C162.581 72.765 162.693 72.99 162.744 73.2355C162.795 73.481 162.765 73.7469 162.673 73.9822C162.581 74.2174 162.417 74.4117 162.202 74.5549C161.987 74.6981 161.742 74.7697 161.496 74.7697H161.486Z" fill="#959595"/>
<path d="M129.656 70.6681C124.715 70.5965 119.867 69.2464 115.602 66.7404C111.224 64.1731 107.593 60.4602 105.107 56.021C102.622 51.5819 101.354 46.5393 101.446 41.4455C101.538 36.3518 102.98 31.3603 105.619 27.0132C105.793 26.7473 106.069 26.553 106.396 26.4814C106.488 26.4609 106.58 26.4507 106.683 26.4507C106.918 26.4507 107.143 26.5121 107.347 26.6348C107.634 26.8087 107.838 27.0848 107.92 27.4122C108.002 27.7395 107.961 28.077 107.797 28.3736C105.312 32.4548 104.003 37.1598 104.003 41.957C104.003 56.3688 115.694 68.1008 130.065 68.1008C144.436 68.1008 156.127 56.379 156.127 41.957C156.127 27.5349 144.436 15.8131 130.065 15.8131C123.692 15.8131 117.566 18.1452 112.809 22.3695C112.574 22.5741 112.277 22.6866 111.96 22.6866C111.541 22.6662 111.224 22.5025 110.999 22.257C110.774 22.0013 110.661 21.6638 110.682 21.3262C110.702 20.9785 110.856 20.6716 111.111 20.4364C114.569 17.3678 118.762 15.1585 123.253 14.0538C125.493 13.5015 127.784 13.2253 130.095 13.2253C132.407 13.2253 134.719 13.5117 136.959 14.0641C141.439 15.179 145.632 17.3883 149.09 20.4568C152.547 23.5254 155.237 27.4428 156.873 31.7797C158.51 36.1165 159.083 40.8318 158.52 45.4346C157.958 50.0374 156.28 54.4765 153.651 58.2917C151.023 62.1069 147.473 65.2573 143.392 67.4053C139.311 69.5532 134.719 70.6886 130.106 70.6886H129.686L129.656 70.6681Z" fill="#959595"/>
<path d="M110.62 42.5195C110.283 42.5195 109.956 42.3865 109.72 42.1411C109.475 41.8956 109.342 41.5785 109.342 41.2307C109.342 35.871 111.428 30.8284 115.203 27.0337C118.977 23.2389 124.009 21.1523 129.349 21.1523C129.686 21.1523 130.013 21.2853 130.249 21.5308C130.494 21.7763 130.627 22.0934 130.627 22.4411C130.627 22.7889 130.494 23.106 130.249 23.3515C130.003 23.5969 129.686 23.7299 129.349 23.7299C119.724 23.7299 111.899 31.5853 111.899 41.2409C111.899 41.5887 111.766 41.9058 111.52 42.1513C111.285 42.3865 110.948 42.5297 110.62 42.5297V42.5195Z" fill="#BEBEBF"/>
<path d="M66.7403 20.293C66.4846 20.293 66.2391 20.2214 66.0345 20.0782C65.8197 19.935 65.6561 19.7406 65.564 19.5054C65.472 19.2701 65.4413 19.0144 65.4924 18.7587C65.5436 18.5132 65.6663 18.278 65.8402 18.1041L83.5046 0.378233C83.6888 0.194121 83.9138 0.0816087 84.1593 0.0304666C84.2411 0.0100098 84.3229 0.0100098 84.4047 0.0100098C84.5684 0.0100098 84.7423 0.040695 84.8957 0.102066C85.131 0.20435 85.3253 0.357776 85.4685 0.572573C85.6117 0.787369 85.6833 1.03285 85.6833 1.28856V12.7955C85.6833 14.8003 84.9059 16.6823 83.4944 18.0938C82.0829 19.5054 80.2111 20.293 78.2166 20.293H66.7403ZM69.8293 17.7256H78.2063C79.5156 17.7256 80.7532 17.2142 81.6738 16.2834C82.6045 15.3526 83.116 14.115 83.116 12.8058V4.38777L69.8293 17.7256Z" fill="#959595"/>
<path d="M135.608 48.81C135.445 48.81 135.281 48.7793 135.128 48.718C134.974 48.6566 134.831 48.5543 134.718 48.4418L123.61 37.3031C123.477 37.1803 123.385 37.0371 123.314 36.8837C123.242 36.72 123.211 36.5564 123.211 36.3825C123.211 36.2086 123.242 36.045 123.303 35.8813C123.365 35.7177 123.467 35.5745 123.58 35.4517C123.702 35.329 123.846 35.2369 123.999 35.1756C124.152 35.1142 124.316 35.0835 124.48 35.0835C124.654 35.0835 124.828 35.1244 124.981 35.1858C125.134 35.2574 125.278 35.3494 125.4 35.4722L136.508 46.6212C136.692 46.8053 136.805 47.0303 136.856 47.2758C136.907 47.5315 136.877 47.7872 136.785 48.0224C136.692 48.2577 136.529 48.4623 136.314 48.6055C136.109 48.7384 135.884 48.81 135.639 48.8203H135.598L135.608 48.81Z" fill="#959595"/>
<path d="M124.511 48.81C124.255 48.81 124.01 48.7384 123.805 48.5952C123.59 48.452 123.427 48.2576 123.335 48.0122C123.242 47.7769 123.212 47.5212 123.263 47.2757C123.314 47.02 123.437 46.795 123.611 46.6109L134.719 35.4721C134.954 35.2471 135.271 35.1141 135.598 35.1141C135.946 35.1141 136.263 35.2471 136.498 35.4926C136.734 35.7381 136.877 36.0551 136.877 36.3927C136.877 36.7302 136.754 37.0575 136.519 37.2928L125.421 48.4315C125.298 48.5543 125.165 48.6463 125.012 48.7077C124.859 48.7691 124.695 48.81 124.521 48.81H124.511Z" fill="#959595"/>
<path d="M89.1815 70.7806H76.9994C76.5289 70.7806 76.0687 70.5863 75.7311 70.259C75.3936 69.9214 75.2095 69.4612 75.2095 68.9907C75.2095 68.5201 75.3936 68.0599 75.7311 67.7223C76.0687 67.3848 76.5187 67.2007 76.9994 67.2007H89.1815C89.652 67.2007 90.1123 67.395 90.4498 67.7223C90.7874 68.0599 90.9715 68.5201 90.9715 68.9907C90.9715 69.4612 90.7874 69.9214 90.4498 70.259C90.1123 70.5965 89.6622 70.7806 89.1815 70.7806Z" fill="#BEBEBF"/>
<path d="M76.9997 70.2692C76.6622 70.2692 76.3349 70.1362 76.0996 69.8908C75.8542 69.6453 75.7212 69.3282 75.7212 68.9804C75.7212 68.6327 75.8542 68.3156 76.0996 68.0701C76.3349 67.8349 76.6622 67.6917 76.9997 67.6917H89.1818C89.5193 67.6917 89.8466 67.8246 90.0819 68.0701C90.3274 68.3156 90.4603 68.6327 90.4603 68.9804C90.4603 69.3282 90.3274 69.6453 90.0819 69.8908C89.8466 70.126 89.5193 70.2692 89.1818 70.2692H76.9997Z" fill="#BEBEBF"/>
<path d="M76.9997 79.1373C76.6622 79.1373 76.3349 79.0043 76.0996 78.7588C75.8542 78.5133 75.7212 78.1962 75.7212 77.8485C75.7212 77.5007 75.8542 77.1836 76.0996 76.9381C76.3349 76.7029 76.6622 76.5597 76.9997 76.5597H96.4951C96.8326 76.5597 97.1599 76.6927 97.3952 76.9381C97.6407 77.1836 97.7737 77.5007 97.7737 77.8485C97.7737 78.1962 97.6407 78.5133 97.3952 78.7588C97.1599 78.9941 96.8326 79.1373 96.4951 79.1373H76.9997Z" fill="#BEBEBF"/>
</g>
<path d="M67.5075 62.2702C58.2609 60.0561 37.4824 61.3213 41.3995 73.0243C43.6031 79.6083 57.7171 78.4014 59.6752 73.657C61.2112 69.9353 54.4548 65.9752 50.8638 67.9636C46.2939 70.494 44.9895 77.8321 56.7381 86.9415" stroke="#959595" stroke-width="1.20396" stroke-miterlimit="4.45214" stroke-linejoin="bevel" stroke-dasharray="1.2 1.2"/>
<path d="M152.403 63.4162C160.294 63.4162 177.023 59.9195 180.811 45.9328M180.811 45.9328C181.337 40.1049 175.646 27.8697 167.396 34.2771C163.487 38.4164 163.766 49.9734 180.811 45.9328ZM180.811 45.9328C182.783 42.3066 187.913 45.1558 185.545 13.297" stroke="#959595" stroke-width="1.20396" stroke-miterlimit="4.45214" stroke-linejoin="bevel" stroke-dasharray="1.2 1.2"/>
<defs>
<clipPath id="clip0_1643_991">
<rect width="97.3131" height="89.56" fill="white" transform="translate(65.4619)"/>
</clipPath>
</defs>
</svg>
